<svg width="17.875000" height="17.875000" viewBox="0 0 17.875 17.875" fill="none" xmlns="http://www.w3.org/2000/svg" xmlns:xlink="http://www.w3.org/1999/xlink">
	<desc>
			Created with Pixso.
	</desc>
	<defs/>
	<path id="Vector" d="M8.93 0C7.16 0 5.44 0.52 3.97 1.5C2.5 2.48 1.35 3.88 0.68 5.51C0 7.15 -0.18 8.94 0.17 10.68C0.51 12.41 1.36 14 2.61 15.25C3.86 16.5 5.46 17.35 7.19 17.7C8.92 18.04 10.72 17.87 12.35 17.19C13.99 16.51 15.38 15.37 16.36 13.9C17.35 12.43 17.87 10.7 17.87 8.93C17.87 6.56 16.93 4.29 15.25 2.62C13.57 0.94 11.3 0 8.93 0ZM9.62 16.46L9.62 11L11.68 11C11.86 11 12.04 10.92 12.17 10.79C12.3 10.66 12.37 10.49 12.37 10.31C12.37 10.13 12.3 9.95 12.17 9.82C12.04 9.69 11.86 9.62 11.68 9.62L9.62 9.62L9.62 7.56C9.62 7.19 9.76 6.84 10.02 6.59C10.28 6.33 10.63 6.18 11 6.18L12.37 6.18C12.55 6.18 12.73 6.11 12.86 5.98C12.99 5.85 13.06 5.68 13.06 5.5C13.06 5.31 12.99 5.14 12.86 5.01C12.73 4.88 12.55 4.81 12.37 4.81L11 4.81C10.27 4.81 9.57 5.1 9.05 5.61C8.53 6.13 8.25 6.83 8.25 7.56L8.25 9.62L6.18 9.62C6 9.62 5.83 9.69 5.7 9.82C5.57 9.95 5.5 10.13 5.5 10.31C5.5 10.49 5.57 10.66 5.7 10.79C5.83 10.92 6 11 6.18 11L8.25 11L8.25 16.46C6.31 16.29 4.51 15.37 3.23 13.9C1.95 12.44 1.29 10.53 1.38 8.59C1.47 6.64 2.3 4.81 3.71 3.46C5.12 2.12 6.99 1.37 8.93 1.37C10.88 1.37 12.75 2.12 14.16 3.46C15.56 4.81 16.4 6.64 16.49 8.59C16.58 10.53 15.91 12.44 14.63 13.9C13.35 15.37 11.56 16.29 9.62 16.46Z" fill="#000000" fill-opacity="1.000000" fill-rule="nonzero"/>
</svg>
