<svg width="20.312500" height="20.312500" viewBox="0 0 20.3125 20.3125" fill="none" xmlns="http://www.w3.org/2000/svg" xmlns:xlink="http://www.w3.org/1999/xlink">
	<desc>
			Created with Pixso.
	</desc>
	<defs/>
	<path id="Vector" d="M10.15 5.46C9.22 5.46 8.32 5.74 7.55 6.25C6.78 6.77 6.18 7.5 5.82 8.36C5.47 9.21 5.37 10.16 5.55 11.07C5.73 11.98 6.18 12.81 6.84 13.47C7.49 14.12 8.33 14.57 9.24 14.75C10.15 14.93 11.09 14.84 11.95 14.48C12.8 14.13 13.53 13.53 14.05 12.76C14.56 11.98 14.84 11.08 14.84 10.15C14.84 8.91 14.34 7.72 13.46 6.84C12.59 5.96 11.39 5.46 10.15 5.46ZM10.15 13.28C9.53 13.28 8.93 13.09 8.42 12.75C7.9 12.41 7.5 11.92 7.26 11.35C7.03 10.78 6.97 10.15 7.09 9.54C7.21 8.94 7.5 8.38 7.94 7.94C8.38 7.5 8.94 7.21 9.54 7.09C10.15 6.97 10.78 7.03 11.35 7.26C11.92 7.5 12.41 7.9 12.75 8.42C13.09 8.93 13.28 9.53 13.28 10.15C13.28 10.98 12.95 11.77 12.36 12.36C11.77 12.95 10.98 13.28 10.15 13.28ZM14.84 0L5.46 0C4.01 0 2.62 0.57 1.6 1.6C0.57 2.62 0 4.01 0 5.46L0 14.84C0 16.29 0.57 17.68 1.6 18.7C2.62 19.73 4.01 20.31 5.46 20.31L14.84 20.31C16.29 20.31 17.68 19.73 18.7 18.7C19.73 17.68 20.31 16.29 20.31 14.84L20.31 5.46C20.31 4.01 19.73 2.62 18.7 1.6C17.68 0.57 16.29 0 14.84 0ZM18.75 14.84C18.75 15.87 18.33 16.87 17.6 17.6C16.87 18.33 15.87 18.75 14.84 18.75L5.46 18.75C4.43 18.75 3.43 18.33 2.7 17.6C1.97 16.87 1.56 15.87 1.56 14.84L1.56 5.46C1.56 4.43 1.97 3.43 2.7 2.7C3.43 1.97 4.43 1.56 5.46 1.56L14.84 1.56C15.87 1.56 16.87 1.97 17.6 2.7C18.33 3.43 18.75 4.43 18.75 5.46L18.75 14.84ZM16.4 5.07C16.4 5.3 16.33 5.53 16.2 5.72C16.08 5.92 15.89 6.07 15.68 6.16C15.46 6.24 15.23 6.27 15 6.22C14.77 6.18 14.56 6.07 14.4 5.9C14.24 5.74 14.13 5.53 14.08 5.3C14.03 5.07 14.06 4.84 14.15 4.62C14.24 4.41 14.39 4.23 14.58 4.1C14.77 3.97 15 3.9 15.23 3.9C15.54 3.9 15.84 4.02 16.06 4.24C16.28 4.46 16.4 4.76 16.4 5.07Z" fill="#000000" fill-opacity="1.000000" fill-rule="nonzero"/>
</svg>
